<svg enable-background="new 0 0 145 135" height="115" viewBox="0 0 115 115" width="115" xmlns="http://www.w3.org/2000/svg"><g fill="#17b2e7"><path d="m113.96351 58.200875c-.364 1.182-1.163 2.047-2.018 2.898-5.73 5.71-11.442 11.439-17.161001 17.162-2.06 2.063-4.262 2.056-6.33-.014-5.901-5.906-11.803-11.812-17.702-17.719-2.009-2.012-2.008-4.209.006-6.226 5.933-5.941 11.866-11.881 17.801-17.819 1.931-1.933 4.199-1.933 6.13-.002 5.754001 5.754 11.499001 11.517 17.262001 17.261.856.853 1.651 1.722 2.012 2.905z"/><path d="m57.082509 113.52787c-1.176-.374-2.029-1.188-2.877-2.042-5.705-5.734-11.429-11.451-17.146-17.174995-2.046-2.05-2.048-4.233-.006-6.278 5.917-5.922 11.833-11.843 17.753-17.765 1.968-1.968 4.221-1.976 6.178-.017 5.918 5.92 11.835 11.844 17.751 17.767 2.032 2.036 2.038 4.265.014 6.291-5.766 5.771995-11.542 11.537995-17.295 17.322995-.824.826-1.671 1.572-2.818 1.896-.519 0-1.036 0-1.554 0z"/><path d="m36.316509 43.233875c0-6.584.059-13.168-.038-19.752-.028-1.906.428-3.395 1.883-4.651 1.171-1.012 2.208-2.179 3.305-3.277 4.337-4.341 8.675-8.6839998 13.014-13.0239998 2.041-2.04099999 4.241-2.03899999 6.28.001 5.902 5.904 11.803 11.8089998 17.704 17.7139998 2.027 2.028 2.025 4.259-.002 6.289-6.979 6.987-13.959 13.974-20.94 20.96-6.164 6.17-12.327 12.341-18.492 18.509-1.142 1.144-2.154.877-2.569-.707-.128-.489-.138-1.021-.139-1.532-.009-6.844-.006-13.687-.006-20.53z"/><path d="m22.203509 57.500875c0 6.043.008 12.086-.012 18.129-.002.574-.094 1.182-.299 1.713-.403 1.05-1.16 1.18-1.952.39-2.779-2.774-5.55-5.558-8.324-8.335-3.2070001-3.212-6.4129999-6.423-9.6179999-9.637-1.32700004-1.328-1.33200004-3.174-.011-4.511 5.9009998-5.969 11.8039999-11.938 17.7089999-17.904.39-.395.758-.93 1.421-.679.634.239.885.811.975 1.446.057.393.101.792.101 1.188.006 6.067.004 12.134.004 18.201.003-.001.005-.001.006-.001z"/></g></svg>