<svg version="1.1" id="Layer_1" xmlns="http://www.w3.org/2000/svg" xmlns:xlink="http://www.w3.org/1999/xlink" x="0px" y="0px"
	 viewBox="0 0 145 135" enable-background="new 0 0 145 135" xml:space="preserve">
<path fill="#17B2E7" d="M129.587,67.596c-0.364,1.182-1.163,2.047-2.018,2.898c-5.73,5.71-11.442,11.439-17.161,17.162
	c-2.06,2.063-4.262,2.056-6.33-0.014c-5.901-5.906-11.803-11.812-17.702-17.719c-2.009-2.012-2.008-4.209,0.006-6.226
	c5.933-5.941,11.866-11.881,17.801-17.819c1.931-1.933,4.199-1.933,6.13-0.002c5.754,5.754,11.499,11.517,17.262,17.261
	c0.856,0.853,1.651,1.722,2.012,2.905C129.587,66.561,129.587,67.078,129.587,67.596z"/>
<path fill="#17B2E7" d="M72.706,122.923c-1.176-0.374-2.029-1.188-2.877-2.042c-5.705-5.734-11.429-11.451-17.146-17.175
	c-2.046-2.05-2.048-4.233-0.006-6.278c5.917-5.922,11.833-11.843,17.753-17.765c1.968-1.968,4.221-1.976,6.178-0.017
	c5.918,5.92,11.835,11.844,17.751,17.767c2.032,2.036,2.038,4.265,0.014,6.291c-5.766,5.772-11.542,11.538-17.295,17.323
	c-0.824,0.826-1.671,1.572-2.818,1.896C73.741,122.923,73.224,122.923,72.706,122.923z"/>
<path fill="#17B2E7" d="M51.94,52.629c0-6.584,0.059-13.168-0.038-19.752c-0.028-1.906,0.428-3.395,1.883-4.651
	c1.171-1.012,2.208-2.179,3.305-3.277c4.337-4.341,8.675-8.684,13.014-13.024c2.041-2.041,4.241-2.039,6.28,0.001
	c5.902,5.904,11.803,11.809,17.704,17.714c2.027,2.028,2.025,4.259-0.002,6.289c-6.979,6.987-13.959,13.974-20.94,20.96
	c-6.164,6.17-12.327,12.341-18.492,18.509c-1.142,1.144-2.154,0.877-2.569-0.707c-0.128-0.489-0.138-1.021-0.139-1.532
	C51.937,66.315,51.94,59.472,51.94,52.629z"/>
<path fill="#17B2E7" d="M37.827,66.896c0,6.043,0.008,12.086-0.012,18.129c-0.002,0.574-0.094,1.182-0.299,1.713
	c-0.403,1.05-1.16,1.18-1.952,0.39c-2.779-2.774-5.55-5.558-8.324-8.335c-3.207-3.212-6.413-6.423-9.618-9.637
	c-1.327-1.328-1.332-3.174-0.011-4.511c5.901-5.969,11.804-11.938,17.709-17.904c0.39-0.395,0.758-0.93,1.421-0.679
	c0.634,0.239,0.885,0.811,0.975,1.446c0.057,0.393,0.101,0.792,0.101,1.188c0.006,6.067,0.004,12.134,0.004,18.201
	C37.824,66.896,37.826,66.896,37.827,66.896z"/>
</svg>