<?xml version="1.0" encoding="utf-8"?>
<!-- Generator: Adobe Illustrator 16.0.0, SVG Export Plug-In . SVG Version: 6.00 Build 0)  -->
<!DOCTYPE svg PUBLIC "-//W3C//DTD SVG 1.1//EN" "http://www.w3.org/Graphics/SVG/1.1/DTD/svg11.dtd">
<svg version="1.1" id="Layer_1" xmlns="http://www.w3.org/2000/svg" xmlns:xlink="http://www.w3.org/1999/xlink" x="0px" y="0px"
	 viewBox="0 0 113.548 129.678" enable-background="new 0 0 113.548 129.678"
	 xml:space="preserve">
<g>
	<path fill="#A6C73A" d="M12.239,43.599h-0.316c-4.008,0-7.278,3.28-7.278,7.278v31.702c0,4.018,3.27,7.283,7.278,7.283h0.326
		c4.008,0,7.278-3.28,7.278-7.283V50.877C19.517,46.879,16.242,43.599,12.239,43.599z"/>
	<path fill="#A6C73A" d="M23.005,94.813c0,3.683,3.01,6.682,6.692,6.682h7.15v17.123c0,4.019,3.28,7.283,7.278,7.283h0.321
		c4.013,0,7.283-3.274,7.283-7.283v-17.123h9.992v17.123c0,4.019,3.301,7.283,7.293,7.283h0.306c4.023,0,7.288-3.274,7.288-7.283
		v-17.123h7.156c3.677,0,6.688-2.999,6.688-6.682V44.76H23.005V94.813z"/>
	<path fill="#A6C73A" d="M73.529,14.408l5.679-8.768c0.367-0.553,0.204-1.309-0.356-1.668c-0.545-0.364-1.309-0.214-1.66,0.354
		l-5.897,9.071c-4.416-1.811-9.352-2.827-14.562-2.827c-5.216,0-10.13,1.016-14.566,2.827l-5.877-9.071
		c-0.356-0.568-1.121-0.718-1.676-0.354c-0.561,0.359-0.729,1.115-0.356,1.668l5.684,8.768
		C29.693,19.43,22.782,28.896,22.782,39.754c0,0.667,0.04,1.324,0.106,1.976H90.59c0.066-0.651,0.103-1.309,0.103-1.976
		C90.687,28.896,83.771,19.43,73.529,14.408z M41.035,30.104c-1.798,0-3.259-1.449-3.259-3.254c0-1.803,1.461-3.247,3.259-3.247
		c1.818,0,3.26,1.444,3.26,3.247C44.294,28.655,42.833,30.104,41.035,30.104z M72.428,30.104c-1.808,0-3.259-1.449-3.259-3.254
		c0-1.803,1.451-3.247,3.259-3.247c1.804,0,3.255,1.444,3.255,3.247C75.683,28.655,74.232,30.104,72.428,30.104z"/>
	<path fill="#A6C73A" d="M101.536,43.599h-0.306c-4.008,0-7.283,3.28-7.283,7.278v31.702c0,4.018,3.285,7.283,7.283,7.283h0.315
		c4.014,0,7.278-3.28,7.278-7.283V50.877C108.819,46.879,105.543,43.599,101.536,43.599z"/>
</g>
</svg>
