<?xml version="1.0" encoding="utf-8"?>
<!-- Generator: Adobe Illustrator 16.0.0, SVG Export Plug-In . SVG Version: 6.00 Build 0)  -->
<!DOCTYPE svg PUBLIC "-//W3C//DTD SVG 1.1//EN" "http://www.w3.org/Graphics/SVG/1.1/DTD/svg11.dtd">
<svg version="1.1" id="Layer_1" xmlns="http://www.w3.org/2000/svg" xmlns:xlink="http://www.w3.org/1999/xlink" x="0px" y="0px"
	 viewBox="0 0 222.323 263.161" enable-background="new 0 0 222.323 263.161"
	 xml:space="preserve">
<path fill="#939598" d="M180.088,146.826c-6.861-34.536,25.917-54.806,25.917-54.806s-12.781-18.481-34.242-23.24
	c-21.463-4.749-32.215,1.192-42.925,5.658c-10.731,4.466-16.091,4.466-16.091,4.466c-15.485,0-26.807-16.399-56.313-8.932
	c-20.332,5.125-41.727,28.596-45.596,56.604c-3.865,28.021,4.477,63.769,20.563,91.476c16.086,27.727,32.475,38.145,44.105,38.447
	c11.631,0.293,23.24-8.336,37.24-10.428c13.999-2.081,22.639,5.072,36.36,8.942c13.702,3.849,18.492,0.262,34.265-13.147
	c15.793-13.408,30.101-51.855,30.101-51.855S186.948,181.404,180.088,146.826z"/>
<path fill="#A3A3A2" d="M149.693,46.417c15.208-15.5,10.041-39.482,10.041-39.482s-21.357,3.745-35.666,18.617
	C109.771,40.466,112.146,64,112.146,64S134.485,61.908,149.693,46.417z"/>
</svg>
