<?xml version="1.0" encoding="utf-8"?>
<!-- Generator: Adobe Illustrator 16.0.0, SVG Export Plug-In . SVG Version: 6.00 Build 0)  -->
<!DOCTYPE svg PUBLIC "-//W3C//DTD SVG 1.1//EN" "http://www.w3.org/Graphics/SVG/1.1/DTD/svg11.dtd">
<svg version="1.1" id="Layer_1" xmlns="http://www.w3.org/2000/svg" xmlns:xlink="http://www.w3.org/1999/xlink" x="0px" y="0px"
	 viewBox="0.07 0.222 394.223 394.223" enable-background="new 0.07 0.222 394.223 394.223"
	 xml:space="preserve">
<g>
	<path d="M329.826,263.03c-4.987,20.511-30.256,63.361-43.674,82.219c-13.431,18.931-11.766,35.976-36.584,29.344
		c-24.746-6.641-31.682-5.438-57.254-3.929c-25.417,1.508-19.916-0.754-35.831,6.413c-15.839,7.165-69.019-86.893-73.315-104.398
		c-4.233-17.496-3.42-19.671,4.747-40.001c6.747-16.804,14.746-36.203,27.155-54.885c15.065-22.681,31.377-34.697,30.172-52.278
		c-4.746-65.249-8.517-97.83,20.439-112.918c27.616-14.33,50.697-5.813,59.822-0.91c3.918,2.116,11.922,6.191,17.874,13.357
		c5.959,7.01,11.313,17.654,14.331,31.075c6.192,26.936-2.556,18.03,4.454,48.882c6.944,30.771,21.047,45.856,38.247,70.225
		C317.601,199.594,335.558,239.792,329.826,263.03z"/>
	<g>
		<path d="M278.38,161.926c0.702-0.489,0.78-1.229,0.213-2.058c-0.571-0.837-1.374-1.084-2.042-0.629
			c-0.561,0.384-0.63,0.855-0.256,1.848l0.235,0.623c0.176,0.463,0.139,0.72-0.121,0.897c-0.336,0.232-0.792,0.05-1.136-0.452
			c-0.209-0.308-0.299-0.629-0.248-0.877c0.043-0.16,0.119-0.271,0.348-0.479l-0.412-0.603c-0.813,0.595-0.893,1.333-0.248,2.272
			c0.618,0.906,1.46,1.177,2.15,0.703c0.536-0.365,0.625-0.869,0.309-1.7l-0.246-0.637c-0.209-0.542-0.195-0.845,0.059-1.018
			c0.33-0.225,0.743-0.076,1.065,0.39c0.313,0.46,0.282,0.843-0.086,1.116L278.38,161.926z"/>
		<path d="M280.376,162.695l-0.389-0.569l-3.595,2.458l0.389,0.569L280.376,162.695z M281.782,161.733l-0.395-0.575l-0.721,0.492
			l0.393,0.577L281.782,161.733z"/>
		<path d="M281.041,163.669l-3.593,2.458l0.393,0.576l2.256-1.543c0.522-0.355,1.198-0.264,1.517,0.201
			c0.291,0.426,0.195,0.844-0.266,1.159l-2.477,1.693l0.395,0.576l2.258-1.543c0.52-0.356,1.198-0.265,1.517,0.202
			c0.285,0.417,0.186,0.849-0.266,1.158l-2.478,1.692l0.396,0.577l2.696-1.845c0.645-0.44,0.747-1.054,0.287-1.726
			c-0.328-0.481-0.669-0.671-1.302-0.73c0.237-0.475,0.205-0.876-0.113-1.343c-0.33-0.48-0.725-0.673-1.365-0.686l0.505-0.348
			L281.041,163.669z"/>
		<path d="M286,170.7c-0.69-1.009-1.829-1.127-3.036-0.301c-1.208,0.825-1.515,1.921-0.817,2.943
			c0.69,1.008,1.832,1.133,3.011,0.328C286.401,172.82,286.708,171.735,286,170.7z M285.476,171.067c0.44,0.646,0.176,1.39-0.718,2
			c-0.842,0.576-1.65,0.544-2.083-0.087c-0.436-0.638-0.174-1.39,0.696-1.986C284.237,170.404,285.04,170.43,285.476,171.067z"/>
		<path d="M287.556,173.198l-3.593,2.458l0.393,0.576l1.982-1.355c0.735-0.5,1.477-0.446,1.88,0.145
			c0.309,0.454,0.233,0.928-0.199,1.224l-2.492,1.704l0.391,0.569l2.717-1.858c0.596-0.407,0.674-1.117,0.203-1.81
			c-0.369-0.536-0.809-0.737-1.523-0.71l0.602-0.413L287.556,173.198z"/>
		<path d="M292.795,181.202l-0.555,0.159c0.272-0.439,0.28-0.868,0.024-1.246c-0.63-0.919-2.113-1.144-3.105-0.464
			c-0.713,0.488-0.926,1.338-0.49,1.977c0.248,0.362,0.6,0.556,1.159,0.636c-0.307,0.302-0.307,0.684-0.013,1.117
			c0.346,0.508,0.83,0.79,1.48,0.859c0.698,0.076,1.398-0.091,1.935-0.457c1.392-0.952,1.646-3.069,0.553-4.667
			c-0.557-0.816-1.484-1.452-2.446-1.68c-1.069-0.255-2.269-0.038-3.167,0.577c-1.523,1.042-1.798,3.262-0.61,4.999
			c0.348,0.507,0.825,0.985,1.347,1.353l0.33-0.506c-0.542-0.455-0.872-0.804-1.124-1.175c-0.995-1.453-0.751-3.261,0.559-4.157
			c1.439-0.985,3.534-0.585,4.524,0.862c0.895,1.312,0.69,3.072-0.457,3.854c-0.803,0.549-1.967,0.511-2.365-0.073
			c-0.127-0.186-0.098-0.437,0.067-0.55c0.062-0.041,0.203-0.099,0.399-0.151l2.342-0.696L292.795,181.202z M291.796,180.374
			c0.264,0.384,0.168,0.863-0.217,1.096c-0.353,0.221-1.057,0.43-1.427,0.431c-0.412,0.001-0.747-0.14-0.921-0.394
			c-0.258-0.379-0.108-0.922,0.344-1.232C290.343,179.748,291.403,179.799,291.796,180.374z"/>
		<path d="M296.253,182.904l-5.001,3.419l0.354,0.515l0.458-0.315c-0.229,0.562-0.182,1.061,0.162,1.562
			c0.645,0.946,1.845,1.034,3.037,0.218c1.167-0.799,1.484-1.879,0.837-2.828c-0.338-0.492-0.762-0.716-1.35-0.707l1.892-1.295
			L296.253,182.904z M295.49,185.732c0.436,0.638,0.162,1.43-0.696,2.016c-0.816,0.558-1.662,0.513-2.09-0.111
			c-0.412-0.604-0.135-1.377,0.708-1.953C294.255,185.106,295.078,185.128,295.49,185.732z"/>
		<path d="M295.869,193.074l3.593-2.458l-0.389-0.569l-2.037,1.393c-0.733,0.502-1.476,0.445-1.884-0.151
			c-0.309-0.453-0.233-0.929,0.199-1.223l2.545-1.74l-0.389-0.57l-2.77,1.896c-0.598,0.406-0.676,1.116-0.199,1.815
			c0.36,0.528,0.776,0.738,1.479,0.75l-0.5,0.342L295.869,193.074z"/>
		<path d="M303.539,193.558l-0.39-0.569l-1.858,1.271c0.197-0.488,0.129-1.004-0.199-1.484c-0.639-0.933-1.804-1.033-2.95-0.25
			c-1.214,0.832-1.554,1.939-0.893,2.906c0.338,0.494,0.757,0.71,1.415,0.715l-0.473,0.323l0.346,0.508L303.539,193.558z
			 M300.621,193.237c0.422,0.617,0.141,1.383-0.719,1.97c-0.829,0.567-1.648,0.545-2.062-0.06c-0.432-0.631-0.162-1.428,0.675-2
			C299.353,192.574,300.193,192.612,300.621,193.237z"/>
		<path d="M303.121,195.967l-0.389-0.57l-3.596,2.458l0.389,0.569L303.121,195.967z M304.527,195.005l-0.393-0.575l-0.721,0.491
			l0.395,0.578L304.527,195.005z"/>
		<path d="M305.39,199.288l-0.521,0.355c0.229-0.578,0.188-1.063-0.125-1.524c-0.625-0.911-1.842-0.986-3.008-0.188
			c-0.59,0.402-0.962,0.888-1.105,1.418c-0.119,0.473-0.032,0.98,0.226,1.358c0.31,0.451,0.716,0.636,1.39,0.65l-0.186,0.125
			c-0.485,0.334-0.823,0.473-1.122,0.466c-0.315-0.005-0.642-0.216-0.878-0.566c-0.179-0.261-0.269-0.541-0.254-0.783
			c0.012-0.2,0.071-0.321,0.262-0.5l-0.399-0.584c-0.639,0.526-0.682,1.332-0.104,2.175c0.367,0.535,0.852,0.877,1.301,0.913
			c0.516,0.049,1.039-0.156,1.883-0.734l3.004-2.053L305.39,199.288z M304.256,198.542c0.424,0.617,0.151,1.338-0.747,1.952
			c-0.859,0.586-1.634,0.573-2.047-0.032c-0.426-0.623-0.156-1.361,0.716-1.958C303.042,197.914,303.841,197.931,304.256,198.542z"
			/>
		<path d="M304.081,203.554l-0.487-0.711l-0.713,0.486l0.488,0.713L304.081,203.554z"/>
		<path d="M311.099,204.616l-0.39-0.569l-1.86,1.271c0.2-0.488,0.129-1.005-0.199-1.484c-0.639-0.934-1.804-1.032-2.948-0.25
			c-1.214,0.831-1.554,1.939-0.893,2.906c0.338,0.493,0.758,0.71,1.415,0.713l-0.473,0.323l0.346,0.509L311.099,204.616z
			 M308.181,204.296c0.422,0.617,0.142,1.384-0.719,1.969c-0.827,0.568-1.65,0.546-2.062-0.058c-0.433-0.632-0.161-1.43,0.674-2.002
			C306.912,203.632,307.753,203.671,308.181,204.296z"/>
		<path d="M310.394,210.877c0.549-0.377,0.85-0.643,1.049-0.929c0.43-0.635,0.411-1.429-0.049-2.102
			c-0.685-1.002-1.895-1.121-3.074-0.314c-1.181,0.807-1.479,1.927-0.789,2.936c0.563,0.824,1.416,1.074,2.297,0.684l-0.394-0.576
			c-0.581,0.166-1.048,0.012-1.363-0.447c-0.248-0.364-0.295-0.785-0.123-1.184c0.11-0.277,0.284-0.467,0.637-0.718L310.394,210.877
			z M309.06,207.923c0.697-0.407,1.406-0.298,1.801,0.278c0.385,0.563,0.213,1.313-0.377,1.718
			c-0.014,0.008-0.025,0.019-0.045,0.021L309.06,207.923z"/>
	</g>
</g>
<g>
	<path fill="#FFFFFF" d="M179.489,140.077c-9.805,0.376-22.755-25.788-23.995-15.694c-1.177,9.592-1.505,9.502-1.505,18.857
		c0,6.265-2.859,6.716-9.052,16.145c-3.164,4.976-5.657,10.33-7.615,15.768c-1.206,3.237-2.338,6.63-3.238,9.951
		c-0.377,1.667-1.059,3.395-1.435,5.06c-3.091,11.389-14.112,25.417-16.668,36.805c-2.567,11.314-5.689,18.556-5.207,33.723
		c0.377,11.887,0.523,10.781,5.123,14.552c4.526,3.772,9.208,7.323,16.375,13.652c7.542,6.569,23.226,18.03,25.342,21.581
		c2.264,3.616,4.236,9.36,0.828,14.405c-3.408,5.047-16.931,4.458-16.857,4.458c-0.074,0,11.739,14.021,13.771,16.065
		c1.959,1.957,12.745,11.231,47.14,4.819c19.38-3.625,34.394-14.478,45.256-24.965c14.029-13.65,15.016-17.891,17.605-25.529
		c3.282-9.685,4.863-17.022,5.913-21.634c0.96-4.227,2.276-17.027,2.276-23.06c0-15.695-1.804-31.682-5.427-43.457
		c-3.321-11.011-8.601-18.701-13.126-28.664c-9.054-19.833-8.603-28.739-16.669-41.404c-9.198-14.636-4.672-24.368-16.899-23.762
		C206.193,118.579,193.894,139.469,179.489,140.077z"/>
	<path d="M217.058,182.999c0.45-2.042,21.792-5.512,25.646-4.38c3.771,1.132,21.037,25.417,18.021,26.4
		c-2.935,0.986-9.503-9.051-19.906-13.88C230.332,186.31,216.681,185.031,217.058,182.999z"/>
	<path d="M169.52,230.149c1.959,0.376-1.168,14.551-1.313,29.113c-0.159,14.563,2.591,20.817,1.313,22.252
		c-1.289,1.436-4.61-5.426-4.453-19.989C165.213,246.963,167.55,229.698,169.52,230.149z"/>
	<path d="M177.456,181.407c1.132,0.083,9.345-1.656,9.65-0.902c0.303,0.524-5.123,2.262-6.788,3.918
		c-0.378,0.46-2.107,1.97-3.018,1.886c-0.754-0.074-1.204-1.583-2.262-2.789c-2.641-2.638-4.297-2.408-3.772-3.394
		C171.643,179.301,175.267,181.333,177.456,181.407z"/>
	<path d="M150.541,183.595c-0.483,2.08-7.653,3.058-12.75,5.957c-3.109,1.77-4.747,4.437-8.999,7.954
		c-4.252,3.517,14.234-42.02,13.188-36.132c-1.046,5.889-3.054,9.135-1.999,12.674C141.856,180.33,151.024,181.514,150.541,183.595z
		"/>
</g>
<g>
	<path fill="#FFB80F" d="M329.973,280.756c4.672,6.789-0.147,15.61,3.247,21.046c5.575,8.895,16.816,17.874,21.122,20.368
		c3.09,1.884,7.459,3.687,7.312,9.197c-0.229,6.266-3.321,7.921-5.049,9.659c-3.477,3.468-20.975,12.143-32.594,20.064
		c-14.635,10.025-19.686,14.477-24.441,19.235c-7.384,7.386-14.405,9.878-25.645,9.878c-11.232,0-16.292-2.335-19.76-5.428
		c-3.468-3.016-7.312-10.717-6.934-22.178c0.293-11.387,3.917-21.802,5.657-39.529c0.755-7.615,0.669-17.044,0.669-25.416
		c0-10.559,0.158-19.538,2.421-20.9c4.075-2.566,4.977-2.712,9.807-2.712c4.83,0,7.008,0.304,8.601,1.884
		c1.509,1.509,0.901,4.978,0.379,9.88c-0.463,4.903,1.883,6.486,4.222,8.528c2.336,1.958,4.453,4.453,11.838,5.05
		c7.395,0.536,10.107-0.681,13.576-2.861c3.469-2.189,8.371-6.118,10.184-8.38c1.738-2.179,6.035-9.723,6.862-9.723
		C322.2,278.419,327.187,276.68,329.973,280.756z"/>
	<path fill="#FFB80F" d="M66.867,292.373c-6.789,4.904-23.98,4.442-28.36,10.183c-4.296,5.731,0.156,14.028,0.072,29.418
		c0,6.559-1.13,11.535-1.885,15.536c-1.047,5.05-1.729,8.602,0.376,12.216c3.857,6.411,10.037,7.994,45.417,15.391
		c18.931,3.917,36.804,14.1,48.801,15.085c11.995,0.902,14.562-3.09,21.875-9.576c7.239-6.496,9.586-4.453,9.355-18.71
		c-0.23-14.185-9.355-18.408-19.686-34.772c-10.34-16.375-11.997-19.391-18.857-30.246c-6.863-10.718-20.441-30.172-28.214-30.404
		c-6.181-0.146-9.659,3.164-13.505,7.093C78.412,277.508,73.655,287.471,66.867,292.373z"/>
</g>
<g>
	<path fill="#FFFFFF" d="M167.42,104.246c4.526-1.812,4.672-1.666,7.69-8.224c2.419-5.05,3.625-7.617,3.551-15.316
		c0-7.543-2.336-10.099-5.888-15.004c-3.395-4.682-8.821-4.901-12.215-4.305c-1.959,0.303-4.526,2.798-6.264,6.485
		c-1.132,2.492-2.034,5.658-2.107,8.979c-0.229,8.904,0.524,12.299,2.555,18.334C157.164,102.287,163.042,105.974,167.42,104.246z"
		/>
	<path d="M163.197,73.54c2.264,0,5.124,1.507,6.487,3.55c1.434,2.033,2.493,4.904,2.493,8.141c0,4.831-0.534,10.184-3.396,11.849
		c-0.911,0.525-2.87,0.975-4.001,0.975c-2.567,0-2.787-1.655-5.208-4.148c-0.827-0.902-3.322-5.281-3.322-8.896
		c0-2.261-0.522-5.511,1.437-8.37C159.049,74.524,160.777,73.54,163.197,73.54z"/>
	<path fill="#FFFFFF" d="M214.188,105.22c11.314-1.204,15.316-5.575,17.348-13.2c1.813-6.79,1.885-14.332-3.163-23.153
		c-4.757-8.445-7.469-9.807-14.333-10.331c-10.56-0.911-15.546,6.486-17.885,11.766c-2.481,5.73-1.957,4.903-1.811,12.143
		c0.156,7.616,2.493,10.792,5.134,15.536C202.118,102.666,212.908,105.304,214.188,105.22z"/>
	<path d="M213.286,73.246c5.658,0,8.968,5.05,10.1,11.535c0.46,2.942-0.219,6.336-2.033,8.675c-2.033,2.712-5.657,4.379-8.601,4.379
		c-2.786,0-5.959,0.45-7.616-1.813c-1.656-2.337-2.033-7.542-2.033-11.241c0-4.149,1.206-7.093,3.312-9.429
		C208.006,73.624,210.866,73.246,213.286,73.246z"/>
	<path fill="#FFFFFF" d="M214.491,76.787c0.598-0.608,1.887,0,3.322,1.582c1.507,1.667,1.507,3.018,0.294,3.929
		c-1.132,0.976-1.583-1.435-2.337-2.346C214.418,78.6,213.286,77.919,214.491,76.787z"/>
	<path fill="#FFFFFF" d="M163.712,77.5c0.429-0.825,2.532-0.617,3.458,0.936c0.919,1.608,1.077,5.307,0.583,5.466
		c-1.31,0.506-1.218-1.7-2.417-3.167C164.201,79.257,163.281,78.382,163.712,77.5z"/>
	<path fill="#FFFFFF" d="M218.433,53.95c0.037,0.608,3.329,1.208,4.69,1.702c1.363,0.492,4.552,3.26,5.8,4.698
		c1.247,1.436,3.551,6.104,4.31,5.899c0.761-0.207-0.909-3.35-2.115-5.09c-1.207-1.737-4.94-5.705-7.318-6.686
		C221.42,53.496,218.396,53.345,218.433,53.95z"/>
	<path fill="#FFFFFF" d="M166.799,56.316c0.046,1.086,3.559,0.749,7.202,3.893c3.723,3.211,4.137,6.072,5.275,5.963
		c1.14-0.107-0.592-3.64-4.397-7.016C171.901,56.511,166.755,55.233,166.799,56.316z"/>
</g>
<g>
	<path fill="#FFB80F" d="M184.696,88.332c5.5-0.681,13.043,0.67,16.521,3.238c3.237,2.42,5.5,3.697,8.445,4.682
		c9.878,3.238,22.86,4.746,22.251,13.652c-0.681,10.634-3.772,15.39-12.594,18.177c-7.09,2.188-19.768,14.478-29.574,14.478
		c-4.37,0-10.487,0.231-14.028-1.048c-3.395-1.214-8.152-6.946-13.725-11.544c-5.583-4.527-10.791-9.356-10.938-15.695
		c-0.229-6.705,4.15-8.895,10.332-14.248c3.248-2.872,9.125-7.626,13.201-9.734C178.358,88.405,180.767,88.783,184.696,88.332z"/>
	<path d="M166.812,124.81c-1.747-0.631-3.468-1.632-4.149-2.24c-2.409-1.516-6.682-5.616-8.14-6.558
		c-0.451-0.147-1.706-0.056-1.436,0.827c0.759,2.472,2.374,3.948,4.519,5.67c2.621,2.103,5.85,4.189,8.674,5.604
		c1.661,0.834,5.812,1.779,5.812,1.779c3.991,0.524,7.701,0.376,10.11,0.376c5.658,0,12.676-2.335,20.063-5.887
		c7.249-3.614,8.978-5.05,14.112-7.994c4.975-2.788,11.242-6.412,9.051-7.47c-2.19-1.131-4.379,0.45-11.546,4.756
		c-6.933,4.223-11.691,6.863-18.625,9.879c-3.176,1.362-7.397,3.018-10.562,3.248c-3.017,0.221-6.945,0.146-9.282,0.146
		C172.701,126.949,169.667,125.84,166.812,124.81z"/>
	<path d="M189.149,93.529c0.827,1.667,2.933,1.886,4.369,2.724c1.36,0.754,2.116,0.901,2.638,0.597
		c1.206-0.597,0.305-2.786-0.898-3.541C194.125,92.555,188.687,92.398,189.149,93.529z"/>
	<path d="M172.554,96.022c-0.231,0.681,1.654,1.959,2.556,1.057c1.058-0.827,2.263-1.665,2.725-1.958
		c1.885-1.215,1.13-2.042-1.886-1.593C172.847,94.135,172.847,95.342,172.554,96.022z"/>
</g>
<g>
	<path fill="#FFFFFF" d="M295.586,238.453c-1.112,7.96-1.715,10.985-3.325,16.303c-1.361,4.514-3.298,9.034-3.833,10.397
		c-0.215,0.548,0.905,0.47,1.386-0.216c0.481-0.685,0.837-1.358,1.39-2.599c2.277-5.103,7.709-21.617,5.684-35.487
		c-1.781-12.205-6.3-22.355-16.031-32.627c-2.895-3.054-12.573-9.037-13.252-7.86c-0.514,0.891,8.198,2.846,17.304,14.979
		C293.104,212.258,297.216,226.781,295.586,238.453z"/>
	<path fill="#FFFFFF" d="M281.858,266.455c2.639-1.702,8.716-2.311,12.553-2.114c3.837,0.197,8.186,0.854,8.186,0.854
		s3.861,0.57,7.383,1.995c3.525,1.425,8.027,4.109,8.234,6.783c0.209,2.674-1.357,1.662-2.915-0.715
		c-1.559-2.38-4.561-4.178-8.256-5.418c-3.699-1.241-9.078-1.778-11.235-1.909c-2.158-0.132-7.653-0.152-10.837,0.876
		c-3.184,1.029-4.832,3.465-6.337,3.786C277.129,270.911,279.215,268.158,281.858,266.455z"/>
	<path fill="#FFFFFF" d="M102.436,240.97c-0.75,8.468,0.456,15.481,2.857,20.358c2.62,5.324,10.76,12.29,10.224,12.833
		c-1.15,1.162-10.316-9.415-12.126-13.389c-2.441-5.358-3.545-11.689-2.543-20.653c1.37-12.256,5.482-21.943,10.31-32.217
		c1.788-3.807,7.044-13.589,7.935-12.563c1.127,1.3-3.057,4.332-8.69,17.896C105.168,225.84,103.296,231.258,102.436,240.97z"/>
	<path fill="#FFFFFF" d="M217.813,24.886c-0.911,1.058-1.969,10.109,0.377,11.021c2.262,0.975,10.329-2.943,10.026-5.06
		c-0.451-3.089-3.771-6.933-5.123-7.092C221.73,23.681,218.64,23.681,217.813,24.886z"/>
	<path fill="#FFFFFF" d="M243.982,119.783c-0.68,0.754,0.524,7.396,4.831,11.764c4.223,4.223,6.862,4.223,8.601,2.337
		c3.312-3.541,0.67-6.861-1.363-9.199c-2.032-2.336-4.672-1.508-7.092-3.845C246.623,118.506,244.969,118.652,243.982,119.783z"/>
</g>
</svg>
