<?xml version="1.0" encoding="utf-8"?>
<!-- Generator: Adobe Illustrator 16.0.0, SVG Export Plug-In . SVG Version: 6.00 Build 0)  -->
<!DOCTYPE svg PUBLIC "-//W3C//DTD SVG 1.1//EN" "http://www.w3.org/Graphics/SVG/1.1/DTD/svg11.dtd">
<svg version="1.1" id="Layer_1" xmlns="http://www.w3.org/2000/svg" xmlns:xlink="http://www.w3.org/1999/xlink" x="0px" y="0px"
	 viewBox="0 0 190.71 244.333" enable-background="new 0 0 190.71 244.333"
	 xml:space="preserve">
<path fill-rule="evenodd" clip-rule="evenodd" fill="#020202" d="M188.857,148.74c-1.308,6.134-3.912,11.664-7.955,16.488
	c-0.327,0.392-0.524,0.813-0.632,1.325c-0.677,3.249-1.54,6.451-2.61,9.594c-0.222,0.65-0.339,1.292-0.338,1.977
	c0.01,7.123-1.805,13.794-5.284,19.964c-5.296,9.387-13.17,15.715-23.376,19.146c-0.538,0.182-1.018,0.425-1.471,0.763
	c-5.797,4.323-12.038,7.861-18.74,10.577c-0.611,0.248-1.129,0.569-1.571,1.071c-1.205,1.371-2.48,2.672-3.881,3.852
	c-9.875,8.315-21.229,11.33-33.881,9.153c-8.88-1.528-16.359-5.829-22.504-12.424c-0.355-0.382-0.752-0.618-1.229-0.799
	c-8.083-3.045-15.529-7.229-22.349-12.529c-0.399-0.31-0.814-0.564-1.287-0.746c-3.881-1.498-7.351-3.72-10.487-6.396
	c-7.626-6.508-12.387-14.715-14.18-24.611c-0.146-0.804-0.201-1.627-0.535-2.397c-2.109-4.858-3.729-9.878-4.881-15.047
	c-0.079-0.355-0.219-0.657-0.455-0.936c-1.912-2.247-3.516-4.692-4.884-7.311c-4.14-7.918-5.266-16.314-3.563-24.991
	c1.912-9.74,7.069-17.536,15.028-23.514c1.139-0.855,1.878-2.303,1.867-3.817c-0.033-4.535,0.53-8.971,1.925-13.29
	c2.489-7.714,6.938-14.076,13.275-19.115c1.093-0.87,2.257-1.652,3.477-2.54c-1.695-0.604-3.256-1.429-4.014-2.941
	c-0.882-1.761-2.242-2.703-3.941-3.412c-0.614-0.257-1.164-0.683-1.72-1.065c-1.211-0.833-2.392-1.852-2.713-3.262
	c-0.476-2.082-1.831-3.269-3.429-4.375c-0.456-0.316-0.854-0.721-1.258-1.108c-1.364-1.307-2.262-2.886-2.372-4.781
	c-0.06-1.028-0.467-1.724-1.192-2.392c-1.88-1.735-3.025-3.867-2.808-6.476c0.087-1.042-0.157-1.786-0.838-2.495
	c-0.303-0.315-0.537-0.699-0.784-1.063c-1.266-1.867-1.735-3.91-1.247-6.122c0.132-0.595,0.024-1.037-0.277-1.545
	c-1.672-2.813-2.092-5.717-0.412-8.685c0.287-0.508,0.347-0.89,0.114-1.447c-0.979-2.345-0.835-4.682,0.443-6.862
	c1.648-2.812,4.172-4.144,7.437-3.927c0.815,0.054,1.395-0.035,1.967-0.728c0.978-1.181,2.331-1.853,3.816-2.238
	c1.922-0.498,3.879-0.666,5.857-0.62c0.289,0.007,0.586,0.093,0.838-0.142c2.062-1.917,4.571-2.267,7.233-2.04
	c0.43,0.037,0.708-0.135,1.02-0.377c1.599-1.244,3.417-1.792,5.438-1.636c1.294,0.1,2.551,0.399,3.809,0.699
	c0.275,0.066,0.588,0.296,0.844,0.123c0.979-0.664,2.139-0.862,3.2-1.308c0.589,0,1.178,0,1.767,0
	c1.229,0.313,2.493,0.541,3.642,1.093c1.156,0.556,2.284,0.996,3.546,0.353c0.099-0.05,0.232-0.025,0.349-0.042
	C64.999,3.024,67.044,3.857,69,5.014c0.365,0.216,0.684,0.369,1.144,0.25c2.365-0.612,4.538-0.126,6.533,1.242
	c1.144,0.784,2.192,1.684,3.177,2.657c0.285,0.282,0.563,0.43,0.994,0.421c2.219-0.046,4.119,0.737,5.766,2.228
	c4.504,4.077,7.79,8.996,10.187,14.545c0.095,0.218,0.091,0.519,0.407,0.639c0.094-0.197,0.188-0.375,0.266-0.559
	c2.405-5.647,5.748-10.634,10.346-14.744c1.584-1.416,3.429-2.139,5.545-2.107c0.496,0.007,0.811-0.163,1.144-0.49
	c0.987-0.969,2.039-1.868,3.187-2.646c1.865-1.265,3.914-1.754,6.12-1.264c0.674,0.15,1.158,0.036,1.718-0.301
	c2.443-1.475,5.023-2.121,7.823-1.098c0.177,0.064,0.314,0.095,0.493,0.004c1.64-0.836,3.392-1.356,5.16-1.829c0.53,0,1.06,0,1.59,0
	c0.629,0.174,1.35,0.208,1.87,0.548c1.402,0.917,2.804,0.688,4.249,0.251c0.056-0.017,0.113-0.033,0.17-0.045
	c2.579-0.562,5.043-0.4,7.212,1.275c0.481,0.372,0.93,0.502,1.521,0.455c2.52-0.199,4.867,0.238,6.812,2.005
	c0.222,0.202,0.458,0.229,0.731,0.206c1.002-0.088,2.004-0.014,2.997,0.086c2.519,0.252,4.997,0.708,6.789,2.706
	c0.605,0.676,1.168,0.855,2.032,0.779c5.225-0.459,9.418,4.346,8.311,9.471c-0.112,0.521,0.067,3.494,0.242,3.968
	c1.001,2.708,0.381,5.192-1.023,7.579c-0.168,0.284-0.462,0.524-0.346,0.949c0.835,3.037-0.13,5.615-2.098,7.904
	c-0.519,0.604-0.878,1.166-0.656,2.029c0.143,0.555,0.035,1.166-0.047,1.754c-0.317,2.295-1.648,3.979-3.271,5.486
	c-0.386,0.358-0.582,0.726-0.606,1.279c-0.1,2.185-0.98,4.024-2.592,5.514c-1.018,0.94-2.095,1.805-3.236,2.588
	c-0.381,0.261-0.598,0.543-0.695,1.031c-0.398,1.979-1.438,3.575-3.058,4.793c-1.3,0.979-2.739,1.704-4.222,2.352
	c-0.3,0.131-0.559,0.241-0.699,0.59c-0.972,2.429-2.796,3.929-5.234,4.751c-0.619,0.209-1.231,0.438-1.941,0.692
	c0.328,0.228,0.54,0.383,0.759,0.526c2.893,1.875,5.364,4.246,7.55,6.866c6.258,7.502,9.327,16.194,9.409,25.967
	c0.012,1.338,0.713,2.556,1.758,3.393c1.1,0.882,2.231,1.725,3.3,2.647c6.283,5.423,10.281,12.22,12.153,20.277"/>
<path fill-rule="evenodd" clip-rule="evenodd" fill="#020202" d="M167.277,50.542c-1.247,0.006-2.519,0.281-3.718-0.296
	c-0.251-0.12-0.648-0.127-0.67-0.471c-0.021-0.317,0.305-0.472,0.558-0.623c1.439-0.859,2.825-1.799,4.146-2.829
	c1.357-1.058,2.696-2.14,3.903-3.57c-1.395,0.207-2.652,0.405-3.882-0.022c-0.847-0.294-0.871-0.515-0.169-1.088
	c1.757-1.435,3.391-3.003,4.938-4.657c0.706-0.753,1.428-1.511,2.034-2.597c-1.579,0.521-3.007,0.76-4.479,0.407
	c-0.578-0.139-0.883-0.335-0.602-1.017c0.136-0.33,0.326-0.525,0.587-0.72c1.316-0.991,2.611-2.013,3.749-3.206
	c0.944-0.989,1.861-2.014,2.412-3.411c-1.411,0.292-2.752,0.357-4.1,0.399c-0.761,0.024-0.873-0.188-0.637-0.892
	c0.949-2.824,2.155-5.506,4.196-7.878c-3.813,0.328-7.482,0.344-11.252-0.242c0.923-1.093,1.854-2.007,2.921-2.891
	c-0.905-0.278-1.765-0.399-2.631-0.419c-2.79-0.063-5.478,0.497-8.113,1.37c-0.568,0.188-1.252,0.549-1.703-0.042
	c-0.457-0.599-0.144-1.301,0.189-1.908c0.276-0.504,0.726-0.839,1.204-1.14c0.206-0.129,0.483-0.172,0.64-0.503
	c-1.381,0.023-2.667,0.219-3.941,0.539c-1.765,0.442-3.488,1.003-5.192,1.637c-0.99,0.368-1.378,0.035-1.249-1.002
	c0.06-0.484,0.311-0.873,0.586-1.26c0.507-0.712,1.272-1.142,2.021-1.795c-0.354,0.025-0.563,0.016-0.759,0.058
	c-3.092,0.664-6.025,1.728-8.707,3.433c-0.919,0.584-1.489,0.292-1.611-0.819c-0.068-0.62,0.137-1.163,0.487-1.649
	c0.319-0.444,0.68-0.86,1.14-1.434c-1.606,0.465-2.913,1.159-4.179,1.95c-1.451,0.907-2.777,1.974-4.037,3.126
	c-0.534,0.489-0.872,0.396-1.221-0.234c-0.604-1.091-0.661-2.162-0.09-3.271c0.087-0.031,0.243-0.058,0.175-0.166
	c-0.065-0.103-0.175-0.012-0.226,0.089c-0.369,0.036-0.645,0.27-0.938,0.457c-1.965,1.244-3.525,2.919-4.991,4.694
	c-0.61,0.738-0.907,0.741-1.536,0.022c-0.256-0.292-0.384-0.643-0.51-1.01c-0.305-0.891,0.032-1.745,0.151-2.709
	c-0.85,0.581-1.543,1.169-2.199,1.801c-1.871,1.798-3.515,3.799-5.108,5.838c-0.357,0.457-0.523,0.395-0.79-0.041
	c-0.55-0.9-0.803-1.895-0.917-3.015c-0.206,0.176-0.32,0.266-0.426,0.364c-5.306,4.957-8.425,11.138-10.089,18.117
	c-0.433,1.813-0.499,3.659-0.106,5.506c0.904,4.26,3.624,6.99,7.391,8.861c0.406,0.202,0.678,0.164,1.019-0.135
	c2.526-2.208,5.21-4.212,7.989-6.089c9.706-6.556,20.141-11.692,31.054-15.889c2.24-0.862,4.471-1.764,6.813-2.332l0.055,0.059
	c-0.142,0.097-0.273,0.212-0.425,0.289c-9.411,4.736-18.329,10.276-26.811,16.517c-5.096,3.75-9.99,7.743-14.214,12.494
	c-0.326,0.367-0.412,0.663-0.27,1.163c1.472,5.168,4.854,8.54,9.782,10.453c4.734,1.838,9.642,2.906,14.716,3.184
	c1.476,0.081,2.939-0.063,4.573-0.31c-0.676-0.352-1.176-0.59-1.655-0.866c-0.512-0.295-0.965-0.658-1.269-1.191
	c-0.265-0.464-0.199-0.753,0.334-0.929c0.587-0.193,1.163-0.363,1.799-0.356c2.269,0.024,4.511-0.25,6.724-0.734
	c1.08-0.236,2.182-0.445,3.311-1.1c-1.11-0.247-2.029-0.456-2.773-1.07c-0.286-0.237-0.725-0.483-0.663-0.873
	c0.067-0.421,0.57-0.418,0.933-0.519c2.907-0.806,5.825-1.584,8.562-2.893c0.505-0.241,1.045-0.451,1.523-0.987
	c-1.387,0.094-2.605-0.026-3.709-0.676c-0.242-0.143-0.591-0.304-0.55-0.619c0.033-0.257,0.385-0.329,0.625-0.433
	c2.131-0.921,4.204-1.956,6.165-3.2c1.309-0.83,2.643-1.639,3.695-2.811c0.042-0.029,0.192-0.015,0.047-0.118
	C167.297,50.454,167.287,50.498,167.277,50.542z"/>
<path fill-rule="evenodd" clip-rule="evenodd" fill="#020202" d="M37.494,25.937c0.369,0.09,0.747,0.153,1.106,0.273
	c5.849,1.956,11.557,4.266,17.127,6.906c9.876,4.682,19.341,10.038,27.688,17.186c0.288,0.247,0.531,0.278,0.872,0.116
	c5.86-2.778,8.604-7.915,7.451-13.888c-0.964-4.994-3.008-9.55-5.888-13.732c-1.333-1.936-2.886-3.677-4.724-5.277
	c-0.136,1.354-0.42,2.526-1.314,3.506c-2.388-2.884-4.583-5.861-7.726-8.111c0.115,0.574,0.243,0.998,0.279,1.43
	c0.091,1.074-0.103,2.056-1.065,2.725c-0.331,0.23-0.563,0.255-0.859-0.143c-0.986-1.324-2.126-2.519-3.371-3.603
	c-0.838-0.73-1.69-1.456-2.769-1.831c-0.053-0.1-0.162-0.193-0.229-0.09c-0.068,0.108,0.09,0.135,0.176,0.169
	c0.508,1.007,0.55,2.008,0.028,3.034c-0.494,0.97-0.719,1.044-1.543,0.293c-1.528-1.392-3.168-2.627-4.979-3.625
	c-0.917-0.505-1.85-0.986-3.064-1.24c0.356,0.391,0.607,0.635,0.822,0.907c0.478,0.606,0.9,1.238,0.837,2.068
	c-0.089,1.167-0.672,1.481-1.631,0.882c-2.307-1.442-4.781-2.489-7.433-3.108c-0.618-0.144-1.225-0.404-2.047-0.324
	c0.366,0.254,0.59,0.392,0.794,0.554c0.693,0.551,1.365,1.121,1.711,1.975c0.195,0.482,0.323,1.057,0.005,1.428
	c-0.321,0.375-0.858,0.148-1.317-0.014c-1.215-0.43-2.435-0.852-3.671-1.216c-1.697-0.501-3.417-0.903-5.244-0.8
	c0.886,0.511,1.711,1.051,2.058,2.062c0.18,0.521,0.302,1.108-0.112,1.498c-0.345,0.324-0.878,0.199-1.342,0.034
	c-2.111-0.746-4.287-1.219-6.514-1.426c-1.502-0.14-2.998-0.069-4.547,0.385c1.127,0.881,2.014,1.832,2.983,2.889
	c-3.823,0.576-7.487,0.566-11.308,0.242c2.096,2.407,3.273,5.109,4.223,7.937c0.227,0.676,0.072,0.847-0.626,0.832
	c-1.36-0.03-2.712-0.141-4.149-0.364c0.849,1.745,2.021,3.089,3.379,4.271c0.975,0.849,1.985,1.66,3.009,2.45
	c0.409,0.316,0.5,0.76,0.477,1.163c-0.023,0.425-0.535,0.368-0.85,0.439c-0.866,0.196-1.731,0.213-2.622,0.049
	c-0.521-0.096-1.01-0.415-1.661-0.319c0.125,0.186,0.197,0.307,0.282,0.419c1.849,2.424,4.088,4.464,6.355,6.477
	c0.292,0.259,0.877,0.416,0.752,0.858c-0.12,0.424-0.696,0.515-1.117,0.593c-0.486,0.09-0.995,0.086-1.493,0.072
	c-0.586-0.018-1.171-0.09-1.901-0.151c2.39,2.569,5.075,4.503,7.894,6.269c0.297,0.186,0.736,0.321,0.714,0.701
	c-0.024,0.403-0.52,0.414-0.823,0.544c-1.152,0.495-2.364,0.237-3.556,0.229c0.046-0.122,0-0.146-0.108-0.101
	c0.041,0.029,0.083,0.059,0.124,0.088c0.137,0.313,0.42,0.482,0.669,0.682c2.727,2.18,5.771,3.816,8.948,5.225
	c0.311,0.137,0.804,0.186,0.816,0.568c0.014,0.411-0.451,0.571-0.787,0.742c-1.037,0.53-2.17,0.569-3.471,0.556
	c0.849,0.683,1.681,1.037,2.505,1.384c2.49,1.048,5.088,1.771,7.689,2.474c0.343,0.093,0.793,0.117,0.876,0.48
	c0.084,0.366-0.33,0.59-0.583,0.822c-0.752,0.69-1.741,0.867-2.724,1.139c0.226,0.325,0.524,0.352,0.789,0.443
	c2.602,0.898,5.299,1.239,8.03,1.385c0.703,0.038,1.428-0.093,2.104,0.129c0.441,0.145,1.143,0.105,1.224,0.653
	c0.083,0.563-0.415,0.985-0.856,1.352c-0.604,0.502-1.361,0.735-2.231,1.28c1.281,0.101,2.33,0.267,3.376,0.252
	c5.936-0.084,11.646-1.315,17.08-3.679c4.432-1.928,7.318-5.284,8.664-9.953c0.142-0.494,0.067-0.79-0.261-1.165
	c-2.253-2.576-4.751-4.901-7.364-7.094c-8.193-6.876-17.08-12.746-26.373-18.014c-2.547-1.444-5.144-2.799-7.717-4.195
	L37.494,25.937z"/>
<path fill-rule="evenodd" clip-rule="evenodd" fill="#020202" d="M63.3,155.846c1.087,0.107,2.979-0.243,4.819-0.725
	c7.578-1.982,13.272-6.607,17.688-12.922c2.715-3.88,4.526-8.14,5.129-12.88c0.26-2.041,0.604-4.074,0.498-6.138
	c-0.146-2.861-0.752-5.605-1.805-8.297c-1.145-2.929-2.644-5.613-4.923-7.744c-6.014-5.624-13.12-7.418-21.12-5.598
	c-6.43,1.463-11.683,4.96-15.863,9.941c-6.328,7.542-9.112,16.217-7.394,26.063c0.942,5.396,3.545,9.9,7.835,13.392
	C52.333,154.332,57.143,155.793,63.3,155.846z"/>
<path fill-rule="evenodd" clip-rule="evenodd" fill="#020202" d="M153.146,131.922c-0.006-1.589-0.095-3.171-0.37-4.74
	c-1.363-7.797-4.902-14.405-10.804-19.704c-3.943-3.54-8.459-5.986-13.69-7.063c-3.435-0.707-6.868-0.683-10.214,0.252
	c-5.825,1.627-10.075,5.253-12.813,10.662c-2.704,5.341-2.946,11.004-2.165,16.77c0.656,4.845,2.785,9.205,5.46,13.157
	c2.684,3.966,6.042,7.462,10.406,9.729c2.308,1.198,4.545,2.548,7.191,3.022c1.648,0.296,3.321,0.372,4.957,0.725
	c0.604,0.131,1.217,0.192,1.839,0.133c2.615-0.25,5.116-0.871,7.566-1.872c4.689-1.917,7.917-5.319,10.125-9.729
	C152.407,139.719,153.166,135.893,153.146,131.922z"/>
<path fill-rule="evenodd" clip-rule="evenodd" fill="#020202" d="M97.036,151.893c-1.665-0.145-3.297,0.086-4.916,0.387
	c-5.575,1.033-10.548,3.305-14.782,7.145c-2.581,2.34-4.289,5.273-5.844,8.311c-0.598,1.169-1.071,2.431-1.303,3.732
	c-0.786,4.439-0.906,8.804,0.696,13.18c1.446,3.951,3.676,7.298,6.754,10.057c4.081,3.658,8.925,5.781,14.348,6.612
	c4.163,0.639,8.265,0.372,12.288-0.813c5.031-1.483,9.41-4.057,12.973-7.969c2.564-2.815,4.321-6.109,5.418-9.69
	c1.115-3.642,1.093-7.415,0.368-11.168c-0.503-2.601-1.668-4.891-2.959-7.191c-2.384-4.25-5.941-7.239-10.089-9.44
	C106,152.926,101.6,151.914,97.036,151.893z"/>
<path fill-rule="evenodd" clip-rule="evenodd" fill="#020202" d="M167.957,177.855c0.118-4.005-0.661-7.802-2.022-11.451
	c-1.045-2.798-2.948-4.813-6.046-5.496c-2.785-0.614-5.457-0.089-8.021,0.833c-4.821,1.731-8.527,5.146-12.105,8.641
	c-2.828,2.762-4.986,6.07-7.146,9.378c-3.26,4.99-5.192,10.433-6.032,16.291c-0.338,2.356,0.025,4.707,0.431,7.014
	c0.354,2.014,1.514,3.745,3.049,5.034c1.554,1.305,3.533,1.883,5.577,1.88c3.789-0.007,7.481-0.662,11.046-1.97
	c6.456-2.366,11.738-6.321,15.618-11.994C166.042,190.544,167.991,184.455,167.957,177.855z"/>
<path fill-rule="evenodd" clip-rule="evenodd" fill="#020202" d="M25.788,177.428c0.107,2.9,0.278,5.825,1.089,8.679
	c2.829,9.959,8.905,17.11,18.381,21.341c3.58,1.598,7.316,2.465,11.243,2.59c4.004,0.126,6.589-2.055,8.385-5.264
	c0.898-1.606,0.892-3.569,0.986-5.415c0.051-0.992,0.126-2.006-0.086-2.989c-0.389-1.806-0.729-3.63-1.259-5.396
	c-1.094-3.654-2.933-6.983-5.015-10.138c-2.927-4.435-6.512-8.314-10.743-11.563c-2.843-2.184-5.958-3.824-9.442-4.754
	c-1.134-0.303-2.285-0.128-3.409-0.317c-3.659-0.615-7.426,1.979-8.681,4.997C26.146,171.823,25.894,174.591,25.788,177.428z"/>
<path fill-rule="evenodd" clip-rule="evenodd" fill="#020202" d="M98.523,99.061c1.466,0.068,2.927-0.08,4.378-0.318
	c1.444-0.237,2.862-0.606,4.315-0.817c2.211-0.32,4.154-1.367,6.152-2.303c2.282-1.068,4.214-2.457,5.758-4.49
	c2.174-2.862,2.183-5.747,0.341-8.839c-1.063-1.784-2.582-3.189-4.163-4.521c-6.612-5.573-14.257-7.962-22.817-7.042
	c-6.977,0.75-12.971,3.775-17.955,8.729c-1.764,1.753-2.9,3.816-2.839,6.407c0.059,2.429,1.357,4.3,2.878,5.961
	c1.641,1.795,3.827,2.889,6.019,3.92C86.276,98.42,92.308,99.224,98.523,99.061z"/>
<path fill-rule="evenodd" clip-rule="evenodd" fill="#020202" d="M97.208,233.954c3.983-0.029,7.772-0.867,11.405-2.425
	c5.454-2.339,9.893-5.949,13.395-10.732c0.982-1.341,1.273-2.835,0.646-4.32c-0.487-1.156-1.479-2.086-2.53-2.753
	c-2.83-1.794-6.014-2.776-9.251-3.498c-2.69-0.6-5.443-0.877-8.196-1.109c-1.73-0.146-3.447-0.348-5.189-0.213
	c-1.405,0.108-2.817,0.128-4.224,0.23c-4.843,0.354-9.602,1.062-14.189,2.802c-2.569,0.975-4.92,2.223-6.898,4.113
	c-1.112,1.063-1.689,2.411-1.314,3.977c0.243,1.016,0.883,1.85,1.561,2.632C78.964,230.21,87.213,234.004,97.208,233.954z"/>
<path fill-rule="evenodd" clip-rule="evenodd" fill="#020202" d="M31.816,130.578c0.032-1.964-0.172-5.004-0.708-8.024
	c-0.357-2.009-1.104-3.807-2.513-5.309c-0.604-0.645-1.545-0.798-2.6-0.308c-1.859,0.864-3.471,2.118-4.952,3.496
	c-7.282,6.777-10.518,15.107-9.38,25.041c0.716,6.25,3.359,11.623,7.603,16.229c1.343,1.457,3.116,1.445,4.421-0.071
	c1.145-1.331,2.092-2.811,2.959-4.343c0.862-1.524,1.147-3.255,1.802-4.855c1.038-2.537,1.459-5.235,2.02-7.909
	C31.359,140.274,31.853,136.01,31.816,130.578z"/>
<path fill-rule="evenodd" clip-rule="evenodd" fill="#020202" d="M159.882,128.438c-0.255,2.606,0.188,5.373,0.543,8.138
	c0.793,6.177,1.933,12.28,4.157,18.133c0.841,2.212,1.942,4.329,3.535,6.038c1.618,1.736,2.357,2.116,4.228,0.038
	c0.59-0.655,1.157-1.331,1.708-2.02c4.169-5.22,6.21-11.212,6.236-17.854c0.022-5.723-1.613-11.001-4.796-15.771
	c-2.66-3.987-6.136-7.094-10.335-9.397c-1.398-0.768-2.716-0.506-3.316,0.715c-0.361,0.732-0.711,1.478-0.917,2.28
	C160.125,121.854,159.658,125.007,159.882,128.438z"/>
<path fill-rule="evenodd" clip-rule="evenodd" fill="#020202" d="M130.744,75.759c-1.338-0.037-3.83,0.327-6.301,0.904
	c-0.644,0.15-0.89,0.474-0.777,1.122c0.217,1.25,0.789,2.334,1.568,3.302c3.233,4.017,6.934,7.594,10.583,11.22
	c3.685,3.659,8,6.546,11.955,9.872c1.674,1.407,3.683,2.312,5.416,3.617c1.924,1.449,4.148,2.304,6.283,3.324
	c1.76,0.842,2.573,0.259,2.638-1.689c0.077-2.297-0.085-4.573-0.498-6.84c-1.287-7.064-4.652-12.967-10.083-17.613
	C145.919,78.181,139.359,75.782,130.744,75.759z"/>
<path fill-rule="evenodd" clip-rule="evenodd" fill="#020202" d="M59.412,75.76c-2.08-0.073-3.958,0.07-5.804,0.455
	c-7.576,1.578-13.813,5.318-18.474,11.56c-4.329,5.799-6.305,12.333-6.028,19.552c0.046,1.214,0.81,1.714,2.055,1.406
	c0.284-0.069,0.549-0.21,0.828-0.3c3.486-1.121,6.439-3.245,9.475-5.173c3.502-2.224,6.624-4.983,9.873-7.557
	c3.349-2.652,6.415-5.634,9.452-8.621c2.585-2.543,5.077-5.227,6.507-8.673c0.438-1.056,0.196-1.604-0.915-1.866
	C64.026,75.99,61.648,75.64,59.412,75.76z"/>
<path fill-rule="evenodd" clip-rule="evenodd" fill="#FFFFFF" d="M139.007,1.963c-1.769,0.472-3.521,0.993-5.16,1.829
	c-0.179,0.091-0.316,0.061-0.493-0.004c-2.8-1.022-5.38-0.376-7.823,1.098c-0.56,0.337-1.044,0.451-1.718,0.301
	c-2.206-0.491-4.255-0.001-6.12,1.264c-1.147,0.778-2.199,1.676-3.187,2.646c-0.333,0.327-0.647,0.497-1.144,0.49
	c-2.116-0.032-3.961,0.691-5.545,2.107c-4.598,4.11-7.94,9.097-10.346,14.744c-0.078,0.184-0.172,0.362-0.266,0.559
	c-0.316-0.12-0.313-0.42-0.407-0.639c-2.396-5.549-5.683-10.468-10.187-14.545c-1.646-1.491-3.547-2.273-5.766-2.228
	c-0.432,0.009-0.709-0.139-0.994-0.421c-0.984-0.974-2.033-1.874-3.177-2.657c-1.995-1.368-4.168-1.854-6.533-1.242
	C69.683,5.383,69.365,5.23,69,5.014c-1.955-1.157-4.001-1.99-6.349-1.648c-0.116,0.017-0.25-0.007-0.349,0.042
	c-1.262,0.643-2.39,0.203-3.546-0.353c-1.148-0.552-2.412-0.78-3.642-1.093C83.079,1.963,111.042,1.963,139.007,1.963z"/>
<path fill-rule="evenodd" clip-rule="evenodd" fill="#60B246" d="M64.302,11.496c1.078,0.375,1.931,1.101,2.769,1.831
	c1.245,1.084,2.385,2.279,3.371,3.603c0.297,0.397,0.528,0.373,0.859,0.143c0.963-0.669,1.156-1.651,1.065-2.725
	c-0.036-0.432-0.164-0.856-0.279-1.43c3.143,2.25,5.338,5.227,7.726,8.111c0.895-0.979,1.179-2.152,1.314-3.506
	c1.838,1.6,3.391,3.341,4.724,5.277c2.88,4.182,4.924,8.738,5.888,13.732c1.152,5.973-1.591,11.11-7.451,13.888
	c-0.341,0.162-0.584,0.131-0.872-0.116c-8.348-7.148-17.813-12.504-27.688-17.186c-5.57-2.64-11.278-4.95-17.127-6.906
	c-0.359-0.12-0.737-0.183-1.106-0.272c-0.063-0.11-0.16-0.131-0.273-0.103c-0.022,0.006-0.039,0.037-0.059,0.056
	c0.093,0.035,0.187,0.069,0.279,0.104c2.573,1.396,5.17,2.751,7.717,4.195c9.293,5.268,18.18,11.138,26.373,18.014
	c2.613,2.193,5.111,4.519,7.364,7.094c0.328,0.375,0.402,0.671,0.261,1.165c-1.346,4.669-4.232,8.025-8.664,9.953
	c-5.435,2.364-11.145,3.595-17.08,3.679c-1.046,0.015-2.095-0.151-3.376-0.252c0.87-0.545,1.628-0.778,2.231-1.28
	c0.441-0.367,0.939-0.789,0.856-1.352c-0.081-0.548-0.782-0.508-1.224-0.653c-0.676-0.222-1.4-0.092-2.104-0.129
	c-2.731-0.146-5.429-0.487-8.03-1.385c-0.265-0.091-0.563-0.118-0.789-0.443c0.982-0.272,1.972-0.449,2.724-1.139
	c0.253-0.232,0.667-0.456,0.583-0.822c-0.083-0.363-0.533-0.387-0.876-0.48c-2.602-0.703-5.199-1.426-7.689-2.474
	c-0.824-0.347-1.656-0.701-2.505-1.384c1.301,0.013,2.434-0.026,3.471-0.556c0.336-0.171,0.801-0.332,0.787-0.742
	c-0.013-0.383-0.506-0.431-0.816-0.568c-3.178-1.409-6.222-3.045-8.948-5.225c-0.249-0.2-0.532-0.369-0.669-0.682l-0.016,0.013
	c1.191,0.008,2.403,0.266,3.556-0.229c0.304-0.13,0.799-0.141,0.823-0.544c0.022-0.38-0.417-0.515-0.714-0.701
	c-2.818-1.766-5.504-3.699-7.894-6.269c0.73,0.061,1.315,0.134,1.901,0.151c0.498,0.014,1.007,0.018,1.493-0.072
	c0.421-0.078,0.997-0.169,1.117-0.593c0.125-0.442-0.46-0.599-0.752-0.858c-2.268-2.013-4.507-4.053-6.355-6.477
	c-0.085-0.112-0.157-0.233-0.282-0.419c0.651-0.096,1.141,0.223,1.661,0.319c0.891,0.164,1.756,0.147,2.622-0.049
	c0.314-0.071,0.826-0.014,0.85-0.439c0.023-0.403-0.067-0.847-0.477-1.163c-1.023-0.79-2.034-1.601-3.009-2.45
	c-1.358-1.183-2.53-2.526-3.379-4.271c1.438,0.223,2.789,0.333,4.149,0.364c0.698,0.016,0.853-0.156,0.626-0.832
	c-0.949-2.828-2.127-5.529-4.223-7.937c3.82,0.324,7.484,0.333,11.308-0.242c-0.97-1.057-1.856-2.007-2.983-2.889
	c1.549-0.454,3.045-0.525,4.547-0.385c2.227,0.207,4.402,0.68,6.514,1.426c0.464,0.165,0.997,0.29,1.342-0.034
	c0.414-0.39,0.292-0.976,0.112-1.498c-0.347-1.011-1.172-1.551-2.058-2.062c1.827-0.103,3.547,0.298,5.244,0.8
	c1.236,0.364,2.456,0.786,3.671,1.216c0.459,0.162,0.996,0.389,1.317,0.014c0.318-0.372,0.19-0.946-0.005-1.428
	c-0.346-0.854-1.018-1.424-1.711-1.975c-0.204-0.162-0.428-0.299-0.794-0.554c0.822-0.081,1.429,0.18,2.047,0.324
	c2.651,0.619,5.126,1.666,7.433,3.108c0.959,0.6,1.542,0.285,1.631-0.882c0.063-0.83-0.359-1.462-0.837-2.068
	c-0.215-0.272-0.466-0.516-0.822-0.907c1.215,0.253,2.147,0.735,3.064,1.24c1.811,0.998,3.45,2.232,4.979,3.625
	c0.824,0.751,1.049,0.677,1.543-0.293c0.521-1.025,0.479-2.027-0.028-3.034C64.265,11.547,64.283,11.521,64.302,11.496z"/>
<path fill-rule="evenodd" clip-rule="evenodd" fill="#60B246" d="M156.802,25.935c-2.343,0.568-4.573,1.47-6.813,2.332
	c-10.913,4.197-21.348,9.333-31.054,15.889c-2.779,1.877-5.463,3.881-7.989,6.089c-0.341,0.298-0.612,0.336-1.019,0.135
	c-3.767-1.871-6.486-4.602-7.391-8.861c-0.393-1.847-0.326-3.693,0.106-5.506c1.664-6.979,4.783-13.16,10.089-18.117
	c0.105-0.099,0.22-0.188,0.426-0.364c0.114,1.12,0.367,2.115,0.917,3.015c0.267,0.436,0.433,0.498,0.79,0.041
	c1.594-2.039,3.237-4.04,5.108-5.838c0.656-0.631,1.35-1.22,2.199-1.801c-0.119,0.964-0.456,1.818-0.151,2.709
	c0.126,0.368,0.254,0.718,0.51,1.01c0.629,0.719,0.926,0.716,1.536-0.022c1.466-1.775,3.026-3.45,4.991-4.694
	c0.294-0.187,0.569-0.421,0.938-0.457c0.02,0.025,0.037,0.052,0.053,0.08c-0.573,1.105-0.517,2.176,0.088,3.268
	c0.349,0.63,0.687,0.724,1.221,0.234c1.26-1.152,2.586-2.219,4.037-3.126c1.266-0.791,2.572-1.484,4.179-1.95
	c-0.46,0.574-0.82,0.99-1.14,1.434c-0.351,0.486-0.556,1.029-0.487,1.649c0.122,1.112,0.692,1.404,1.611,0.819
	c2.682-1.705,5.615-2.769,8.707-3.433c0.196-0.042,0.405-0.032,0.759-0.058c-0.748,0.654-1.514,1.083-2.021,1.795
	c-0.275,0.387-0.526,0.776-0.586,1.26c-0.129,1.037,0.259,1.37,1.249,1.002c1.704-0.633,3.428-1.195,5.192-1.637
	c1.274-0.32,2.561-0.516,3.941-0.539c-0.156,0.331-0.434,0.374-0.64,0.503c-0.479,0.3-0.928,0.636-1.204,1.14
	c-0.333,0.606-0.646,1.309-0.189,1.908c0.451,0.59,1.135,0.23,1.703,0.042c2.636-0.874,5.323-1.434,8.113-1.37
	c0.866,0.02,1.726,0.141,2.631,0.419c-1.066,0.884-1.998,1.798-2.921,2.891c3.77,0.586,7.438,0.57,11.252,0.242
	c-2.041,2.373-3.247,5.055-4.196,7.878c-0.236,0.703-0.124,0.916,0.637,0.892c1.348-0.042,2.688-0.107,4.1-0.399
	c-0.551,1.397-1.468,2.422-2.412,3.411c-1.138,1.193-2.433,2.215-3.749,3.206c-0.261,0.195-0.451,0.39-0.587,0.72
	c-0.281,0.682,0.023,0.878,0.602,1.017c1.473,0.354,2.9,0.114,4.479-0.407c-0.606,1.086-1.328,1.844-2.034,2.597
	c-1.548,1.654-3.182,3.222-4.938,4.657c-0.702,0.573-0.678,0.794,0.169,1.088c1.229,0.427,2.487,0.229,3.882,0.022
	c-1.207,1.43-2.546,2.513-3.903,3.57c-1.321,1.03-2.707,1.97-4.146,2.829c-0.253,0.15-0.578,0.306-0.558,0.623
	c0.021,0.344,0.419,0.351,0.67,0.471c1.199,0.577,2.471,0.302,3.718,0.296l-0.017-0.013c-1.053,1.171-2.387,1.981-3.695,2.811
	c-1.961,1.244-4.034,2.278-6.165,3.2c-0.24,0.104-0.592,0.175-0.625,0.433c-0.041,0.315,0.308,0.476,0.55,0.619
	c1.104,0.65,2.322,0.771,3.709,0.676c-0.479,0.537-1.019,0.746-1.523,0.987c-2.736,1.309-5.654,2.086-8.562,2.893
	c-0.362,0.101-0.865,0.098-0.933,0.519c-0.062,0.39,0.377,0.636,0.663,0.873c0.744,0.614,1.663,0.823,2.773,1.07
	c-1.129,0.654-2.23,0.864-3.311,1.1c-2.213,0.484-4.455,0.758-6.724,0.734c-0.636-0.007-1.212,0.163-1.799,0.356
	c-0.533,0.175-0.599,0.465-0.334,0.929c0.304,0.533,0.757,0.896,1.269,1.191c0.479,0.276,0.979,0.515,1.655,0.866
	c-1.634,0.247-3.098,0.391-4.573,0.31c-5.074-0.278-9.981-1.346-14.716-3.184c-4.928-1.913-8.311-5.285-9.782-10.453
	c-0.143-0.5-0.057-0.796,0.27-1.163c4.224-4.751,9.118-8.744,14.214-12.494c8.481-6.241,17.399-11.781,26.811-16.517
	c0.151-0.077,0.283-0.191,0.425-0.289c0.093-0.035,0.185-0.069,0.278-0.104c-0.02-0.019-0.036-0.05-0.059-0.056
	C156.964,25.806,156.867,25.828,156.802,25.935z"/>
<path fill-rule="evenodd" clip-rule="evenodd" fill="#D52750" d="M63.3,155.846c-6.157-0.053-10.967-1.515-15.135-4.907
	c-4.29-3.491-6.893-7.995-7.835-13.392c-1.719-9.846,1.065-18.521,7.394-26.063c4.181-4.981,9.434-8.479,15.863-9.941
	c8-1.82,15.106-0.026,21.12,5.598c2.279,2.131,3.778,4.815,4.923,7.744c1.053,2.691,1.658,5.436,1.805,8.297
	c0.105,2.063-0.238,4.097-0.498,6.138c-0.603,4.74-2.414,9-5.129,12.88c-4.416,6.314-10.11,10.939-17.688,12.922
	C66.279,155.603,64.387,155.954,63.3,155.846z"/>
<path fill-rule="evenodd" clip-rule="evenodd" fill="#D52750" d="M153.146,131.922c0.02,3.971-0.739,7.797-2.512,11.34
	c-2.208,4.41-5.436,7.813-10.125,9.729c-2.45,1.001-4.951,1.622-7.566,1.872c-0.622,0.06-1.234-0.002-1.839-0.133
	c-1.636-0.353-3.309-0.429-4.957-0.725c-2.646-0.475-4.884-1.824-7.191-3.022c-4.364-2.267-7.723-5.763-10.406-9.729
	c-2.675-3.952-4.804-8.313-5.46-13.157c-0.781-5.766-0.539-11.429,2.165-16.77c2.738-5.409,6.988-9.035,12.813-10.662
	c3.346-0.935,6.779-0.959,10.214-0.252c5.231,1.077,9.747,3.523,13.69,7.063c5.901,5.299,9.44,11.907,10.804,19.704
	C153.051,128.751,153.14,130.333,153.146,131.922z"/>
<path fill-rule="evenodd" clip-rule="evenodd" fill="#D52750" d="M97.036,151.893c4.564,0.021,8.965,1.033,12.952,3.15
	c4.147,2.201,7.705,5.19,10.089,9.44c1.291,2.301,2.456,4.591,2.959,7.191c0.725,3.753,0.747,7.526-0.368,11.168
	c-1.097,3.581-2.854,6.875-5.418,9.69c-3.563,3.912-7.941,6.485-12.973,7.969c-4.023,1.186-8.125,1.452-12.288,0.813
	c-5.423-0.831-10.267-2.954-14.348-6.612c-3.078-2.759-5.308-6.105-6.754-10.057c-1.603-4.376-1.482-8.74-0.696-13.18
	c0.231-1.302,0.705-2.563,1.303-3.732c1.555-3.037,3.263-5.971,5.844-8.311c4.234-3.84,9.207-6.111,14.782-7.145
	C93.739,151.979,95.371,151.749,97.036,151.893z"/>
<path fill-rule="evenodd" clip-rule="evenodd" fill="#D52750" d="M167.957,177.855c0.034,6.6-1.914,12.689-5.653,18.159
	c-3.88,5.673-9.162,9.628-15.618,11.994c-3.564,1.308-7.257,1.963-11.046,1.97c-2.044,0.003-4.023-0.575-5.577-1.88
	c-1.535-1.289-2.695-3.021-3.049-5.034c-0.405-2.307-0.769-4.657-0.431-7.014c0.84-5.858,2.772-11.301,6.032-16.291
	c2.16-3.308,4.318-6.616,7.146-9.378c3.578-3.494,7.284-6.909,12.105-8.641c2.564-0.922,5.236-1.447,8.021-0.833
	c3.098,0.684,5.001,2.698,6.046,5.496C167.295,170.053,168.075,173.85,167.957,177.855z"/>
<path fill-rule="evenodd" clip-rule="evenodd" fill="#D52750" d="M25.788,177.428c0.106-2.837,0.358-5.605,1.449-8.229
	c1.255-3.019,5.021-5.612,8.681-4.997c1.124,0.189,2.275,0.015,3.409,0.317c3.484,0.93,6.6,2.57,9.442,4.754
	c4.231,3.249,7.816,7.129,10.743,11.563c2.082,3.154,3.921,6.483,5.015,10.138c0.529,1.766,0.87,3.59,1.259,5.396
	c0.212,0.983,0.137,1.997,0.086,2.989c-0.095,1.846-0.088,3.809-0.986,5.415c-1.796,3.209-4.381,5.39-8.385,5.264
	c-3.927-0.125-7.663-0.992-11.243-2.59c-9.476-4.23-15.552-11.382-18.381-21.341C26.066,183.253,25.895,180.329,25.788,177.428z"/>
<path fill-rule="evenodd" clip-rule="evenodd" fill="#D52750" d="M98.523,99.061c-6.215,0.163-12.247-0.641-17.934-3.314
	c-2.191-1.031-4.378-2.125-6.019-3.92c-1.521-1.661-2.819-3.532-2.878-5.961c-0.062-2.59,1.075-4.654,2.839-6.407
	c4.984-4.953,10.979-7.979,17.955-8.729c8.561-0.921,16.205,1.468,22.817,7.042c1.581,1.333,3.101,2.738,4.163,4.521
	c1.842,3.092,1.833,5.977-0.341,8.839c-1.544,2.033-3.476,3.422-5.758,4.49c-1.998,0.936-3.941,1.982-6.152,2.303
	c-1.453,0.211-2.871,0.58-4.315,0.817C101.45,98.981,99.989,99.129,98.523,99.061z"/>
<path fill-rule="evenodd" clip-rule="evenodd" fill="#D52750" d="M97.208,233.954c-9.994,0.051-18.243-3.743-24.786-11.297
	c-0.678-0.782-1.317-1.616-1.561-2.632c-0.375-1.565,0.202-2.913,1.314-3.977c1.979-1.891,4.329-3.139,6.898-4.113
	c4.588-1.74,9.347-2.447,14.189-2.802c1.406-0.103,2.818-0.122,4.224-0.23c1.742-0.135,3.459,0.067,5.189,0.213
	c2.753,0.232,5.506,0.51,8.196,1.109c3.237,0.722,6.421,1.704,9.251,3.498c1.052,0.667,2.043,1.597,2.53,2.753
	c0.627,1.485,0.336,2.979-0.646,4.32c-3.502,4.783-7.94,8.394-13.395,10.732C104.98,233.086,101.191,233.924,97.208,233.954z"/>
<path fill-rule="evenodd" clip-rule="evenodd" fill="#D52750" d="M31.816,130.578c0.037,5.433-0.457,9.696-1.349,13.946
	c-0.561,2.674-0.981,5.372-2.02,7.909c-0.654,1.601-0.939,3.331-1.802,4.855c-0.867,1.532-1.814,3.012-2.959,4.343
	c-1.305,1.517-3.078,1.528-4.421,0.071c-4.243-4.605-6.887-9.979-7.603-16.229c-1.138-9.934,2.098-18.264,9.38-25.041
	c1.481-1.378,3.093-2.632,4.952-3.496c1.055-0.49,1.995-0.337,2.6,0.308c1.408,1.502,2.155,3.3,2.513,5.309
	C31.644,125.574,31.848,128.614,31.816,130.578z"/>
<path fill-rule="evenodd" clip-rule="evenodd" fill="#D52750" d="M159.882,128.438c-0.225-3.431,0.243-6.584,1.043-9.701
	c0.206-0.803,0.556-1.548,0.917-2.28c0.601-1.221,1.918-1.482,3.316-0.715c4.199,2.304,7.675,5.41,10.335,9.397
	c3.183,4.771,4.818,10.049,4.796,15.771c-0.026,6.643-2.067,12.635-6.236,17.854c-0.551,0.688-1.118,1.364-1.708,2.02
	c-1.87,2.078-2.609,1.698-4.228-0.038c-1.593-1.709-2.694-3.826-3.535-6.038c-2.225-5.853-3.364-11.956-4.157-18.133
	C160.071,133.811,159.627,131.044,159.882,128.438z"/>
<path fill-rule="evenodd" clip-rule="evenodd" fill="#D52750" d="M130.744,75.759c8.615,0.023,15.176,2.422,20.784,7.22
	c5.431,4.646,8.796,10.549,10.083,17.613c0.413,2.267,0.575,4.543,0.498,6.84c-0.064,1.948-0.878,2.531-2.638,1.689
	c-2.135-1.021-4.359-1.875-6.283-3.324c-1.733-1.306-3.742-2.21-5.416-3.617c-3.955-3.326-8.271-6.213-11.955-9.872
	c-3.649-3.626-7.35-7.203-10.583-11.22c-0.779-0.968-1.352-2.052-1.568-3.302c-0.112-0.648,0.134-0.972,0.777-1.122
	C126.914,76.086,129.406,75.722,130.744,75.759z"/>
<path fill-rule="evenodd" clip-rule="evenodd" fill="#D52750" d="M59.412,75.76c2.236-0.12,4.614,0.23,6.969,0.784
	c1.111,0.261,1.354,0.81,0.915,1.866c-1.43,3.447-3.922,6.13-6.507,8.673c-3.037,2.987-6.104,5.969-9.452,8.621
	c-3.249,2.573-6.371,5.333-9.873,7.557c-3.035,1.928-5.988,4.052-9.475,5.173c-0.279,0.09-0.544,0.23-0.828,0.3
	c-1.245,0.308-2.009-0.192-2.055-1.406c-0.276-7.219,1.699-13.753,6.028-19.552c4.66-6.242,10.897-9.982,18.474-11.56
	C55.454,75.83,57.332,75.687,59.412,75.76z"/>
<path fill-rule="evenodd" clip-rule="evenodd" fill="#60B246" d="M64.25,11.575c-0.086-0.034-0.244-0.061-0.176-0.169
	c0.066-0.103,0.176-0.01,0.229,0.09C64.283,11.521,64.265,11.547,64.25,11.575z"/>
<path fill-rule="evenodd" clip-rule="evenodd" fill="#60B246" d="M129.997,11.495c0.051-0.102,0.16-0.192,0.226-0.089
	c0.068,0.108-0.088,0.135-0.174,0.167C130.034,11.547,130.016,11.521,129.997,11.495z"/>
<path fill-rule="evenodd" clip-rule="evenodd" fill="#60B246" d="M27.038,50.528c-0.041-0.029-0.083-0.059-0.124-0.088
	c0.108-0.044,0.154-0.021,0.108,0.101L27.038,50.528z"/>
<path fill-rule="evenodd" clip-rule="evenodd" fill="#60B246" d="M167.277,50.542c0.01-0.043,0.021-0.087,0.03-0.131
	c0.146,0.103-0.005,0.089-0.047,0.118L167.277,50.542z"/>
<path fill-rule="evenodd" clip-rule="evenodd" fill="#020202" d="M37.441,25.995c-0.093-0.035-0.187-0.069-0.279-0.104
	c0.02-0.019,0.036-0.05,0.059-0.056c0.113-0.029,0.211-0.007,0.273,0.103C37.494,25.937,37.441,25.995,37.441,25.995z"/>
<path fill-rule="evenodd" clip-rule="evenodd" fill="#020202" d="M156.802,25.935c0.064-0.107,0.162-0.129,0.274-0.101
	c0.022,0.006,0.039,0.037,0.059,0.056c-0.094,0.035-0.186,0.069-0.278,0.104L156.802,25.935z"/>
</svg>
